PathFileType	4	(X/Y/Z)	G:\GRF\jawan data\CompiledGRF\03. Mohit Kumar\0231~ac~Walking 09_markers.trc
DataRate	CameraRate	NumFrames	NumMarkers	Units	OrigDataRate	OrigDataStartFrame	OrigNumFrames
100.000000	100.000000	20	18	mm	100.000000	735	840
Frame#	Time	c7			r should			l should			sacrum			r asis			r bar 1			r knee 1			r bar 2			r mall			r heel			r met			l asis			l bar 1			l knee 1			l bar 2			l mall			l heel			l met			
		X1	Y1	Z1	X2	Y2	Z2	X3	Y3	Z3	X4	Y4	Z4	X5	Y5	Z5	X6	Y6	Z6	X7	Y7	Z7	X8	Y8	Z8	X9	Y9	Z9	X10	Y10	Z10	X11	Y11	Z11	X12	Y12	Z12	X13	Y13	Z13	X14	Y14	Z14	X15	Y15	Z15	X16	Y16	Z16	X17	Y17	Z17	X18	Y18	Z18	

736	7.350000000000001	nan	nan	nan	3503.580078125	1446.844604492188	418.8890991210938	nan	nan	nan	3326.1962890625	1038.48828125	250.6882476806641	nan	nan	nan	nan	nan	nan	nan	nan	nan	nan	nan	nan	nan	nan	nan	nan	nan	nan	nan	nan	nan	nan	nan	nan	nan	nan	nan	nan	nan	nan	nan	nan	nan	nan	nan	nan	nan	nan	nan	nan	nan	nan	
737	7.36	nan	nan	nan	3511.41943359375	1445.848754882813	419.4175720214844	nan	nan	nan	3333.9111328125	1037.919067382813	251.3975524902344	nan	nan	nan	nan	nan	nan	nan	nan	nan	nan	nan	nan	nan	nan	nan	nan	nan	nan	nan	nan	nan	nan	nan	nan	nan	nan	nan	nan	nan	nan	nan	nan	nan	nan	nan	nan	nan	nan	nan	nan	nan	nan	
738	7.37	nan	nan	nan	3518.285400390625	1444.994873046875	420.2820434570313	nan	nan	nan	3341.576171875	1037.190673828125	252.1212768554688	nan	nan	nan	nan	nan	nan	nan	nan	nan	nan	nan	nan	nan	nan	nan	nan	nan	nan	nan	nan	nan	nan	nan	nan	nan	nan	nan	nan	nan	nan	nan	nan	nan	nan	nan	nan	nan	nan	nan	nan	nan	nan	
739	7.38	nan	nan	nan	3523.8662109375	1443.693603515625	420.9750061035156	3494.23974609375	1455.1826171875	99.58305358886719	3349.06982421875	1036.524291992188	252.8877868652344	nan	nan	nan	nan	nan	nan	nan	nan	nan	nan	nan	nan	nan	nan	nan	nan	nan	nan	nan	nan	nan	nan	nan	nan	nan	nan	nan	nan	nan	nan	nan	nan	nan	nan	nan	nan	nan	nan	nan	nan	nan	nan	
740	7.390000000000001	nan	nan	nan	3530.67333984375	1442.275756835938	421.2653503417969	3499.407470703125	1454.33349609375	99.15430450439453	3356.398681640625	1035.814086914063	253.6605529785156	nan	nan	nan	nan	nan	nan	nan	nan	nan	nan	nan	nan	nan	nan	nan	nan	nan	nan	nan	nan	nan	nan	nan	nan	nan	nan	nan	nan	nan	nan	nan	nan	nan	nan	nan	nan	nan	nan	nan	nan	nan	nan	
741	7.4	nan	nan	nan	3539.591796875	1441.28173828125	421.2826843261719	3505.672119140625	1453.212036132813	98.416748046875	3362.02587890625	1035.030395507813	254.4451599121094	nan	nan	nan	nan	nan	nan	nan	nan	nan	nan	nan	nan	nan	nan	nan	nan	nan	nan	nan	nan	nan	nan	nan	nan	nan	nan	nan	nan	nan	nan	nan	nan	nan	nan	nan	nan	nan	nan	nan	nan	nan	nan	
742	7.41	nan	nan	nan	3550.22900390625	1440.520751953125	421.0728454589844	3513.3125	1452.206665039063	98.6072998046875	3368.60595703125	1033.948486328125	255.1101989746094	nan	nan	nan	nan	nan	nan	nan	nan	nan	nan	nan	nan	nan	nan	nan	nan	nan	nan	nan	nan	nan	nan	nan	nan	nan	nan	nan	nan	nan	nan	nan	nan	nan	nan	nan	nan	nan	nan	nan	nan	nan	nan	
743	7.42	nan	nan	nan	3558.4423828125	1438.783081054688	420.4739685058594	3520.91748046875	1451.0615234375	98.90299224853516	3374.4248046875	1032.851684570313	255.5532531738281	nan	nan	nan	nan	nan	nan	nan	nan	nan	nan	nan	nan	nan	nan	nan	nan	nan	nan	nan	nan	nan	nan	nan	nan	nan	nan	nan	nan	nan	nan	nan	nan	nan	nan	nan	nan	nan	nan	nan	nan	nan	nan	
744	7.43	nan	nan	nan	3566.464111328125	1437.485961914063	420.4000244140625	3528.163818359375	1449.775634765625	99.07089233398438	3380.098876953125	1031.823364257813	256.1114501953125	nan	nan	nan	nan	nan	nan	nan	nan	nan	nan	nan	nan	nan	nan	nan	nan	nan	nan	nan	nan	nan	nan	nan	nan	nan	nan	nan	nan	nan	nan	nan	nan	nan	nan	nan	nan	nan	nan	nan	nan	nan	nan	
745	7.44	nan	nan	nan	3573.39013671875	1436.214477539063	420.7943725585938	3535.15478515625	1448.346435546875	99.02310180664063	3386.021728515625	1030.932495117188	256.7988586425781	nan	nan	nan	nan	nan	nan	nan	nan	nan	nan	nan	nan	nan	nan	nan	nan	nan	nan	nan	nan	nan	nan	nan	nan	nan	nan	nan	nan	nan	nan	nan	nan	nan	nan	nan	nan	nan	nan	nan	nan	nan	nan	
746	7.45	nan	nan	nan	3578.957763671875	1434.899536132813	421.5079345703125	3542.302001953125	1447.00341796875	98.68655395507813	3389.55712890625	1030.42431640625	257.1135559082031	nan	nan	nan	nan	nan	nan	nan	nan	nan	nan	nan	nan	nan	nan	nan	nan	nan	nan	nan	nan	nan	nan	nan	nan	nan	nan	nan	nan	nan	nan	nan	nan	nan	nan	nan	nan	nan	nan	nan	nan	nan	nan	
747	7.46	nan	nan	nan	3587.072509765625	1433.851440429688	421.6200561523438	3549.931640625	1445.854736328125	98.61414337158203	3396.2705078125	1029.673095703125	257.5046081542969	nan	nan	nan	nan	nan	nan	nan	nan	nan	nan	nan	nan	nan	nan	nan	nan	nan	nan	nan	nan	nan	nan	nan	nan	nan	nan	nan	nan	nan	nan	nan	nan	nan	nan	nan	nan	nan	nan	nan	nan	nan	nan	
748	7.47	nan	nan	nan	3596.724609375	1433.087158203125	421.1990356445313	3557.54443359375	1444.7861328125	98.49394226074219	3404.771484375	1028.768310546875	257.6271362304688	nan	nan	nan	nan	nan	nan	nan	nan	nan	nan	nan	nan	nan	nan	nan	nan	nan	nan	nan	nan	nan	nan	nan	nan	nan	nan	nan	nan	nan	nan	nan	nan	nan	nan	nan	nan	nan	nan	nan	nan	nan	nan	
749	7.48	nan	nan	nan	3603.5556640625	1432.091430664063	420.4479370117188	3565.242919921875	1443.8876953125	98.25031280517578	3414.425048828125	1027.695434570313	257.4142761230469	nan	nan	nan	nan	nan	nan	nan	nan	nan	nan	nan	nan	nan	nan	nan	nan	nan	nan	nan	nan	nan	nan	nan	nan	nan	nan	nan	nan	nan	nan	nan	nan	nan	nan	nan	nan	nan	nan	nan	nan	nan	nan	
750	7.49	nan	nan	nan	3611.5693359375	1430.713500976563	420.2422485351563	3572.917724609375	1443.061767578125	97.98503875732422	3423.40380859375	1026.767578125	257.1931457519531	nan	nan	nan	nan	nan	nan	nan	nan	nan	nan	nan	nan	nan	nan	nan	nan	nan	nan	nan	nan	nan	nan	nan	nan	nan	nan	nan	nan	nan	nan	nan	nan	nan	nan	nan	nan	nan	nan	nan	nan	nan	nan	
751	7.5	nan	nan	nan	3622.19287109375	1429.019897460938	420.7566528320313	3580.6689453125	1442.275146484375	97.84294891357422	3431.877197265625	1025.816650390625	256.9754028320313	nan	nan	nan	nan	nan	nan	nan	nan	nan	nan	nan	nan	nan	nan	nan	nan	nan	nan	nan	nan	nan	nan	nan	nan	nan	nan	nan	nan	nan	nan	nan	nan	nan	nan	nan	nan	nan	nan	nan	nan	nan	nan	
752	7.51	nan	nan	nan	3625.216552734375	1428.680541992188	420.8929748535156	3587.899169921875	1441.4443359375	97.412841796875	3440.3955078125	1024.955322265625	256.9125366210938	nan	nan	nan	nan	nan	nan	nan	nan	nan	nan	nan	nan	nan	nan	nan	nan	nan	nan	nan	nan	nan	nan	nan	nan	nan	nan	nan	nan	nan	nan	nan	nan	nan	nan	nan	nan	nan	nan	nan	nan	nan	nan	
753	7.52	nan	nan	nan	3631.62353515625	1428.244384765625	420.8841247558594	3595.21044921875	1440.768188476563	97.00881958007813	3443.88720703125	1025.090209960938	256.5741577148438	nan	nan	nan	nan	nan	nan	nan	nan	nan	nan	nan	nan	nan	nan	nan	nan	nan	nan	nan	nan	nan	nan	nan	nan	nan	nan	nan	nan	nan	nan	nan	nan	nan	nan	nan	nan	nan	nan	nan	nan	nan	nan	
754	7.53	nan	nan	nan	3643.076171875	1427.365600585938	420.6700439453125	3602.482666015625	1440.105346679688	96.68910217285156	3451.990478515625	1024.405029296875	256.2278137207031	nan	nan	nan	nan	nan	nan	nan	nan	nan	nan	nan	nan	nan	nan	nan	nan	nan	nan	nan	nan	nan	nan	nan	nan	nan	nan	nan	nan	nan	nan	nan	nan	nan	nan	nan	nan	nan	nan	nan	nan	nan	nan	
755	7.54	nan	nan	nan	3656.8642578125	1426.234375	420.3658142089844	3609.66455078125	1439.45556640625	96.32878875732422	3464.404052734375	1023.184448242188	255.9130554199219	nan	nan	nan	nan	nan	nan	nan	nan	nan	nan	nan	nan	nan	nan	nan	nan	nan	nan	nan	nan	nan	nan	nan	nan	nan	nan	nan	nan	nan	nan	nan	nan	nan	nan	nan	nan	nan	nan	nan	nan	nan	nan	
